<svg version="1.1" xmlns="http://www.w3.org/2000/svg" xmlns:xlink="http://www.w3.org/1999/xlink" x="0px" y="0px"
	 viewBox="0 0 100 100" style="enable-background:new 0 0 100 100;" xml:space="preserve">
<g id="Vrstva_18">
	<g>
		<g>
			<g>
				<path d="M82.998,85.449c-0.398,0-0.779-0.158-1.061-0.439L52.228,55.301c-0.586-0.586-0.586-1.535,0-2.121
					c0.586-0.586,1.535-0.586,2.121,0l28.648,28.648l5.243-5.243L57.592,45.937c-0.586-0.586-0.586-1.535,0-2.121
					c0.586-0.586,1.535-0.586,2.121,0l31.709,31.709c0.586,0.586,0.586,1.535,0,2.121l-7.364,7.364
					C83.777,85.291,83.395,85.449,82.998,85.449z"/>
			</g>
			<g>
				<path d="M33.379,44.558c-0.384,0-0.768-0.146-1.061-0.439c-0.586-0.586-0.586-1.535,0-2.121l16.031-16.03
					c0.586-0.586,1.535-0.586,2.121,0c0.586,0.586,0.586,1.535,0,2.121L34.44,44.118C34.147,44.411,33.763,44.558,33.379,44.558z"/>
			</g>
			<g>
				<path d="M42.572,53.751c-0.384,0-0.768-0.146-1.061-0.439c-0.586-0.586-0.586-1.535,0-2.121l16.031-16.031
					c0.586-0.586,1.535-0.586,2.121,0c0.586,0.586,0.586,1.535,0,2.121L43.632,53.312C43.339,53.604,42.956,53.751,42.572,53.751z"
					/>
			</g>
			<g>
				<path d="M62.492,39.487c-0.398,0-0.779-0.158-1.06-0.439l-14.849-14.85c-0.281-0.281-0.439-0.663-0.439-1.061
					c0-0.397,0.158-0.779,0.439-1.06l7.364-7.363c0.586-0.586,1.535-0.586,2.121,0l14.85,14.849
					c0.281,0.281,0.439,0.663,0.439,1.061c0,0.397-0.158,0.779-0.439,1.06l-7.364,7.364C63.271,39.329,62.89,39.487,62.492,39.487z
					 M49.764,23.138l12.727,12.729l5.243-5.243L55.006,17.896L49.764,23.138z"/>
			</g>
			<g>
				<path d="M39.036,62.942c-0.384,0-0.768-0.147-1.061-0.44L23.126,47.654c-0.281-0.281-0.44-0.663-0.44-1.061
					c0-0.397,0.158-0.779,0.44-1.061l6.364-6.364c0.586-0.586,1.535-0.586,2.121,0l1.829,1.828c0.586,0.586,0.586,1.535,0,2.121
					c-0.586,0.586-1.536,0.586-2.122,0l-0.768-0.768l-4.243,4.243l12.728,12.728l4.243-4.242l-1.746-1.747
					c-0.586-0.586-0.586-1.535,0-2.121c0.586-0.586,1.535-0.586,2.121,0l2.808,2.808c0.281,0.281,0.439,0.663,0.439,1.061
					c0,0.397-0.158,0.779-0.439,1.061l-6.364,6.363C39.803,62.796,39.419,62.942,39.036,62.942z"/>
			</g>
		</g>
		<g>
			<path d="M37.638,75.726h-20c-0.829,0-1.5-0.672-1.5-1.5s0.671-1.5,1.5-1.5h20c0.829,0,1.5,0.672,1.5,1.5
				S38.467,75.726,37.638,75.726z"/>
		</g>
		<g>
			<path d="M45.638,85.726h-36c-0.829,0-1.5-0.672-1.5-1.5s0.671-1.5,1.5-1.5h36c0.829,0,1.5,0.672,1.5,1.5
				S46.467,85.726,45.638,85.726z"/>
		</g>
		<g>
			<path d="M17.138,84.226c-0.829,0-1.5-0.672-1.5-1.5v-8c0-0.828,0.671-1.5,1.5-1.5c0.829,0,1.5,0.672,1.5,1.5v8
				C18.638,83.554,17.967,84.226,17.138,84.226z"/>
		</g>
		<g>
			<path d="M38.138,84.226c-0.829,0-1.5-0.672-1.5-1.5v-8c0-0.828,0.671-1.5,1.5-1.5c0.829,0,1.5,0.672,1.5,1.5v8
				C39.638,83.554,38.967,84.226,38.138,84.226z"/>
		</g>
	</g>
</g>
<script  type="text/javascript">
    <![CDATA[
         var c=window.location.search.split('color=')[1]; c=parseInt(c,16); if(!isNaN(c)){c=c.toString(16);var p=document.getElementsByTagName('path');for(var i=0,l=p.length;i<l;i++){var s=p[i].style;s.fill='#'+c;} var p2=document.getElementsByTagName('polygon');for(var i=0,l=p2.length;i<l;i++){var s=p2[i].style;s.fill='#'+c;} var p3=document.getElementsByTagName('circle');for(var i=0,l=p3.length;i<l;i++){var s=p3[i].style;s.fill='#'+c;} }
        ]]>
</script>
</svg>
