<svg version="1.1" xmlns="http://www.w3.org/2000/svg" xmlns:xlink="http://www.w3.org/1999/xlink" x="0px" y="0px"
	 viewBox="0 0 100 100" style="enable-background:new 0 0 100 100;" xml:space="preserve">
<g id="Vrstva_89">
	<g>
		<g>
			<path d="M83,82H17c-3.032,0-5.5-2.468-5.5-5.5V39c0-0.828,0.672-1.5,1.5-1.5c0.828,0,1.5,0.672,1.5,1.5v37.5
				c0,1.379,1.121,2.5,2.5,2.5h66c1.379,0,2.5-1.121,2.5-2.5V39c0-0.828,0.672-1.5,1.5-1.5s1.5,0.672,1.5,1.5v37.5
				C88.5,79.533,86.032,82,83,82z"/>
		</g>
		<g>
			<g>
				<path d="M49.778,57.5c-0.206,0-0.415-0.042-0.614-0.132l-27.779-12.5c-0.756-0.34-1.093-1.229-0.753-1.983
					c0.341-0.755,1.231-1.093,1.983-0.753l27.779,12.5c0.756,0.34,1.093,1.229,0.753,1.983C50.897,57.171,50.351,57.5,49.778,57.5z"
					/>
			</g>
			<g>
				<path d="M50.001,57.5c-0.579,0-1.131-0.337-1.377-0.902c-0.33-0.76,0.019-1.644,0.778-1.974l28.779-12.5
					c0.76-0.328,1.644,0.019,1.974,0.778c0.33,0.76-0.019,1.644-0.778,1.974l-28.779,12.5C50.403,57.46,50.2,57.5,50.001,57.5z"/>
			</g>
		</g>
		<g>
			<g>
				<path d="M14.001,39.5c-0.543,0-1.066-0.296-1.333-0.812c-0.381-0.735-0.093-1.641,0.643-2.021l35.779-18.5
					c0.732-0.382,1.641-0.094,2.021,0.643c0.381,0.735,0.093,1.641-0.644,2.021l-35.779,18.5C14.469,39.447,14.233,39.5,14.001,39.5
					z"/>
			</g>
			<g>
				<path d="M85.778,39.5c-0.232,0-0.468-0.054-0.688-0.168l-35.779-18.5c-0.736-0.38-1.024-1.285-0.643-2.021
					c0.381-0.735,1.288-1.024,2.02-0.643l35.779,18.5c0.736,0.38,1.024,1.285,0.644,2.021C86.845,39.204,86.321,39.5,85.778,39.5z"
					/>
			</g>
		</g>
	</g>
</g>
<script  type="text/javascript">
    <![CDATA[
         var c=window.location.search.split('color=')[1]; c=parseInt(c,16); if(!isNaN(c)){c=c.toString(16);var p=document.getElementsByTagName('path');for(var i=0,l=p.length;i<l;i++){var s=p[i].style;s.fill='#'+c;} var p2=document.getElementsByTagName('polygon');for(var i=0,l=p2.length;i<l;i++){var s=p2[i].style;s.fill='#'+c;} var p3=document.getElementsByTagName('circle');for(var i=0,l=p3.length;i<l;i++){var s=p3[i].style;s.fill='#'+c;} }
        ]]>
</script>
</svg>
