<?xml version="1.0" encoding="utf-8"?>
<!-- Generator: Adobe Illustrator 18.1.1, SVG Export Plug-In . SVG Version: 6.00 Build 0)  -->
<svg version="1.1" id="Layer_1" xmlns="http://www.w3.org/2000/svg" xmlns:xlink="http://www.w3.org/1999/xlink" x="0px" y="0px"
	 viewBox="0 0 100 100" enable-background="new 0 0 100 100" xml:space="preserve">
<g>
	<path fill="#010101" d="M50,92.4l-1.2-1.2c-5-4.8-9.8-9-14-12.8C20.3,65.9,10,56.8,10,41.2c0-12.7,10.2-22.8,22.8-22.8
		c6.7,0,12.8,2.8,17.2,7.7c4.3-4.8,10.5-7.7,17.2-7.7C79.8,18.4,90,28.6,90,41.2c0,13.2-10,22.5-24,35.7c-4.5,4.2-9.5,9-14.8,14.3
		L50,92.4z M32.8,21.8c-10.8,0-19.5,8.7-19.5,19.5c0,14,10,22.7,23.7,34.8c4,3.5,8.3,7.3,13,11.7c4.8-5,9.7-9.3,13.8-13.3
		c13.7-13,22.8-21.5,22.8-33.2c0-10.8-8.7-19.5-19.5-19.5c-6.3,0-12,2.8-15.8,8L50,31.6l-1.3-1.8C44.8,24.6,39.2,21.8,32.8,21.8z"/>
	<path fill="#010101" d="M50.8,76.8c-0.8,0-1.3-0.5-1.7-1.2l-7-26.7l-1.8,11c-0.2,0.8-0.8,1.3-1.7,1.3H21v-3.3h16.3l3-17.2
		c0.2-0.8,0.8-1.3,1.5-1.3c0.8,0,1.5,0.5,1.7,1.2l6.8,26.2L56,28.4c0.2-0.8,0.8-1.3,1.5-1.5c0.8,0,1.5,0.5,1.7,1.2l7.7,29.5h21.5
		v3.3H65.7c-0.8,0-1.5-0.5-1.7-1.2l-6-22.7l-5.7,38.2C52.3,76.1,51.7,76.8,50.8,76.8L50.8,76.8z"/>
</g>
<script  type="text/javascript">
	<![CDATA[
		 var c=window.location.search.split('color=')[1]; c=parseInt(c,16); if(!isNaN(c)){c=c.toString(16);var p=document.getElementsByTagName('path');for(var i=0,l=p.length;i<l;i++){p[i].style.fill='#'+c;}} 
		]]>
</script>
</svg>
