<svg version="1.1" xmlns="http://www.w3.org/2000/svg" xmlns:xlink="http://www.w3.org/1999/xlink" x="0px" y="0px"
	 viewBox="0 0 100 100" style="enable-background:new 0 0 100 100;" xml:space="preserve">
<g id="Vrstva_169">
	<g>
		<g>
			<path d="M67.306,55.309c-5.943,0-11.531-2.314-15.733-6.517c-8.674-8.676-8.674-22.792,0-31.466
				c4.203-4.203,9.791-6.517,15.733-6.517c5.943,0,11.531,2.314,15.733,6.517c4.203,4.202,6.517,9.79,6.517,15.733
				c0,5.943-2.314,11.531-6.517,15.733C78.836,52.995,73.249,55.309,67.306,55.309z M67.306,13.809
				c-5.142,0-9.976,2.002-13.612,5.638c-7.504,7.505-7.504,19.718,0,27.224c3.636,3.636,8.471,5.638,13.612,5.638
				c5.142,0,9.976-2.002,13.612-5.638c3.636-3.636,5.638-8.471,5.638-13.612c0-5.142-2.002-9.976-5.638-13.612
				C77.282,15.811,72.448,13.809,67.306,13.809z"/>
		</g>
		<g>
			<path d="M20.966,89.191c-0.036,0-0.072-0.001-0.108-0.004l-8.382-0.607c-0.741-0.054-1.331-0.641-1.387-1.382l-0.64-8.375
				c-0.033-0.437,0.125-0.866,0.435-1.175l30.375-30.363c0.586-0.585,1.536-0.585,2.122,0c0.585,0.586,0.585,1.536,0,2.122
				L13.493,79.282l0.489,6.399l6.402,0.464l5.948-6.042c0.237-0.241,0.548-0.395,0.883-0.436l6.929-0.864l0.658-7.576
				c0.06-0.686,0.579-1.244,1.259-1.352l6.181-0.98l0.853-6.445c0.043-0.329,0.195-0.634,0.431-0.868l5.71-5.665
				c0.588-0.583,1.537-0.58,2.121,0.009c0.583,0.588,0.58,1.538-0.009,2.121l-5.347,5.304l-0.933,7.046
				c-0.087,0.658-0.596,1.181-1.252,1.285l-6.128,0.972l-0.662,7.617c-0.061,0.705-0.606,1.271-1.309,1.358l-7.616,0.95
				l-6.068,6.164C21.752,89.031,21.367,89.191,20.966,89.191z"/>
		</g>
		<g>
			<path d="M73.837,33.537c-0.384,0-0.768-0.146-1.061-0.439l-4.976-4.975c-0.586-0.586-0.586-1.535,0-2.121
				c0.585-0.586,1.535-0.586,2.121,0l4.976,4.975c0.586,0.585,0.586,1.535,0,2.121C74.605,33.39,74.221,33.537,73.837,33.537z"/>
		</g>
	</g>
</g>
<script  type="text/javascript">
    <![CDATA[
         var c=window.location.search.split('color=')[1]; c=parseInt(c,16); if(!isNaN(c)){c=c.toString(16);var p=document.getElementsByTagName('path');for(var i=0,l=p.length;i<l;i++){var s=p[i].style;s.fill='#'+c;} var p2=document.getElementsByTagName('polygon');for(var i=0,l=p2.length;i<l;i++){var s=p2[i].style;s.fill='#'+c;} var p3=document.getElementsByTagName('circle');for(var i=0,l=p3.length;i<l;i++){var s=p3[i].style;s.fill='#'+c;} }
        ]]>
</script>
</svg>
