<svg version="1.1" xmlns="http://www.w3.org/2000/svg" xmlns:xlink="http://www.w3.org/1999/xlink" x="0px" y="0px"
	 viewBox="0 0 100 100" style="enable-background:new 0 0 100 100;" xml:space="preserve">
<g id="Vrstva_15">
	<g>
		<g>
			<path d="M14.458,55.449c-0.384,0-0.768-0.146-1.061-0.439L1.791,43.403c-0.586-0.586-0.586-1.535,0-2.121l27.577-27.577
				c0.281-0.281,0.663-0.439,1.061-0.439l0,0c0.397,0,0.779,0.158,1.061,0.439l11.606,11.607c0.586,0.586,0.586,1.535,0,2.121
				L15.519,55.01C15.226,55.303,14.842,55.449,14.458,55.449z M4.973,42.343l9.485,9.485l25.456-25.455l-9.485-9.486L4.973,42.343z"
				/>
		</g>
		<g>
			<path d="M52.399,87.734c-0.397,0-0.779-0.158-1.061-0.439L17.287,53.242c-0.586-0.586-0.586-1.535,0-2.121
				c0.586-0.586,1.535-0.586,2.121,0l32.991,32.992L73.191,63.32L57.108,47.457c-0.59-0.582-0.596-1.532-0.015-2.122
				c0.582-0.589,1.53-0.596,2.122-0.015l17.158,16.925c0.284,0.281,0.445,0.664,0.446,1.063c0.001,0.399-0.157,0.783-0.439,1.065
				L53.46,87.295C53.179,87.576,52.797,87.734,52.399,87.734z"/>
		</g>
		<g>
			<path d="M50.468,37.46c-0.229,0-0.461-0.052-0.679-0.163l-11.201-5.698c-0.739-0.376-1.033-1.278-0.657-2.017
				c0.376-0.739,1.28-1.032,2.017-0.657l11.201,5.698c0.739,0.376,1.033,1.278,0.657,2.017C51.541,37.16,51.014,37.46,50.468,37.46z
				"/>
		</g>
		<g>
			<path d="M68.017,69.41c-0.384,0-0.768-0.146-1.061-0.439l-6.192-6.192c-0.586-0.586-0.586-1.535,0-2.121
				c0.586-0.586,1.535-0.586,2.121,0l6.192,6.192c0.586,0.586,0.586,1.535,0,2.121C68.784,69.264,68.4,69.41,68.017,69.41z"/>
		</g>
		<g>
			<path d="M62.729,75.436c-0.384,0-0.768-0.146-1.06-0.439l-6.562-6.562c-0.586-0.586-0.586-1.535,0-2.121
				c0.586-0.586,1.535-0.586,2.121,0l6.562,6.562c0.586,0.586,0.586,1.535,0,2.121C63.496,75.289,63.112,75.436,62.729,75.436z"/>
		</g>
		<g>
			<path d="M57.703,81.724c-0.384,0-0.768-0.146-1.061-0.439l-7.192-7.192c-0.586-0.586-0.586-1.535,0-2.121
				c0.586-0.586,1.535-0.586,2.121,0l7.192,7.192c0.586,0.586,0.586,1.535,0,2.121C58.471,81.577,58.087,81.724,57.703,81.724z"/>
		</g>
		<g>
			<g>
				<path d="M85.541,54.449c-0.384,0-0.768-0.146-1.061-0.439L56.904,26.433c-0.586-0.586-0.586-1.535,0-2.121l11.606-11.606
					c0.586-0.586,1.535-0.586,2.121,0l27.577,27.577c0.281,0.281,0.439,0.663,0.439,1.061c0,0.397-0.158,0.779-0.439,1.061
					L86.602,54.01C86.309,54.303,85.925,54.449,85.541,54.449z M60.086,25.372l25.455,25.456l9.486-9.485L69.571,15.887
					L60.086,25.372z"/>
			</g>
			<g>
				<path d="M46.458,59.592c-0.384,0-0.768-0.146-1.061-0.439l-6.778-6.778c-0.516-0.516-0.586-1.326-0.167-1.923l10.789-15.354
					c0.109-0.156,0.248-0.29,0.408-0.394l10.264-6.698c0.693-0.453,1.623-0.259,2.075,0.436c0.453,0.693,0.258,1.623-0.436,2.075
					L51.53,37.059l-9.898,14.086l4.826,4.826l10.508-10.508c0.586-0.586,1.535-0.586,2.121,0c0.586,0.586,0.586,1.535,0,2.121
					L47.519,59.152C47.226,59.445,46.842,59.592,46.458,59.592z"/>
			</g>
		</g>
		<g>
			<path d="M72.432,60.815c-0.384,0-0.768-0.146-1.061-0.44c-0.586-0.586-0.586-1.535,0-2.121l8.401-8.401
				c0.586-0.586,1.535-0.586,2.121,0c0.586,0.586,0.586,1.535,0,2.121l-8.401,8.401C73.199,60.669,72.815,60.815,72.432,60.815z"/>
		</g>
	</g>
</g>
<script  type="text/javascript">
    <![CDATA[
         var c=window.location.search.split('color=')[1]; c=parseInt(c,16); if(!isNaN(c)){c=c.toString(16);var p=document.getElementsByTagName('path');for(var i=0,l=p.length;i<l;i++){var s=p[i].style;s.fill='#'+c;} var p2=document.getElementsByTagName('polygon');for(var i=0,l=p2.length;i<l;i++){var s=p2[i].style;s.fill='#'+c;} var p3=document.getElementsByTagName('circle');for(var i=0,l=p3.length;i<l;i++){var s=p3[i].style;s.fill='#'+c;} }
        ]]>
</script>
</svg>
