<svg version="1.1" xmlns="http://www.w3.org/2000/svg" xmlns:xlink="http://www.w3.org/1999/xlink" x="0px" y="0px"
	 viewBox="0 0 100 100" style="enable-background:new 0 0 100 100;" xml:space="preserve">
<g id="Vrstva_226">
	<g>
		<g>
			<path style="fill:#020000;" d="M86,80.447H14c-0.828,0-1.5-0.672-1.5-1.5v-21c0-0.324,0.105-0.641,0.3-0.9l5.7-7.6v-31.5
				c0-0.124,0.016-0.248,0.046-0.368C18.78,16.655,21.651,8.553,50,8.553c28.349,0,31.22,8.102,31.454,9.026
				c0.03,0.12,0.046,0.244,0.046,0.368v31.5l5.7,7.6c0.194,0.26,0.3,0.576,0.3,0.9v21C87.5,79.775,86.828,80.447,86,80.447z
				 M15.5,77.447h69v-19l-5.7-7.6c-0.194-0.26-0.3-0.576-0.3-0.9V18.225c-0.44-0.806-4.447-6.672-28.5-6.672
				c-23.802,0-27.974,5.744-28.5,6.697v31.697c0,0.324-0.106,0.641-0.3,0.9l-5.7,7.6V77.447z"/>
		</g>
		<g>
			<path style="fill:#020000;" d="M28.166,70.448c-3.584,0-6.5-2.916-6.5-6.501c0-3.585,2.916-6.501,6.5-6.501s6.5,2.916,6.5,6.501
				C34.666,67.532,31.75,70.448,28.166,70.448z M28.166,60.446c-1.93,0-3.5,1.57-3.5,3.501c0,1.931,1.57,3.501,3.5,3.501
				c1.93,0,3.5-1.57,3.5-3.501C31.666,62.017,30.096,60.446,28.166,60.446z"/>
		</g>
		<g>
			<path style="fill:#020000;" d="M72.166,70.448c-3.584,0-6.5-2.916-6.5-6.501c0-3.585,2.916-6.501,6.5-6.501s6.5,2.916,6.5,6.501
				C78.666,67.532,75.75,70.448,72.166,70.448z M72.166,60.446c-1.93,0-3.5,1.57-3.5,3.501c0,1.931,1.57,3.501,3.5,3.501
				c1.93,0,3.5-1.57,3.5-3.501C75.666,62.017,74.096,60.446,72.166,60.446z"/>
		</g>
		<g>
			<path style="fill:#020000;" d="M71,48.447H29c-0.828,0-1.5-0.672-1.5-1.5v-24c0-0.828,0.672-1.5,1.5-1.5h42
				c0.828,0,1.5,0.672,1.5,1.5v24C72.5,47.775,71.828,48.447,71,48.447z M30.5,45.447h39v-21h-39V45.447z"/>
		</g>
		<g>
			<path style="fill:#020000;" d="M87,38.947c-0.828,0-1.5-0.672-1.5-1.5v-11c0-0.828,0.672-1.5,1.5-1.5c0.828,0,1.5,0.672,1.5,1.5
				v11C88.5,38.275,87.828,38.947,87,38.947z"/>
		</g>
		<g>
			<path style="fill:#020000;" d="M13,38.947c-0.828,0-1.5-0.672-1.5-1.5v-11c0-0.828,0.672-1.5,1.5-1.5c0.828,0,1.5,0.672,1.5,1.5
				v11C14.5,38.275,13.828,38.947,13,38.947z"/>
		</g>
		<g>
			<path style="fill:#020000;" d="M60.5,61.447h-21c-0.828,0-1.5-0.672-1.5-1.5c0-0.828,0.672-1.5,1.5-1.5h21
				c0.828,0,1.5,0.672,1.5,1.5C62,60.775,61.328,61.447,60.5,61.447z"/>
		</g>
		<g>
			<path style="fill:#020000;" d="M60.5,70.447h-21c-0.828,0-1.5-0.672-1.5-1.5s0.672-1.5,1.5-1.5h21c0.828,0,1.5,0.672,1.5,1.5
				S61.328,70.447,60.5,70.447z"/>
		</g>
		<g>
			<path style="fill:#020000;" d="M33.5,91.447h-11c-0.828,0-1.5-0.672-1.5-1.5s0.672-1.5,1.5-1.5h11c0.828,0,1.5,0.672,1.5,1.5
				S34.328,91.447,33.5,91.447z"/>
		</g>
		<g>
			<path style="fill:#020000;" d="M22,90.947c-0.828,0-1.5-0.672-1.5-1.5v-5c0-0.828,0.672-1.5,1.5-1.5c0.828,0,1.5,0.672,1.5,1.5v5
				C23.5,90.275,22.828,90.947,22,90.947z"/>
		</g>
		<g>
			<path style="fill:#020000;" d="M34,90.947c-0.828,0-1.5-0.672-1.5-1.5v-5c0-0.828,0.672-1.5,1.5-1.5c0.828,0,1.5,0.672,1.5,1.5v5
				C35.5,90.275,34.828,90.947,34,90.947z"/>
		</g>
		<g>
			<path style="fill:#020000;" d="M77.5,91.447h-11c-0.828,0-1.5-0.672-1.5-1.5s0.672-1.5,1.5-1.5h11c0.828,0,1.5,0.672,1.5,1.5
				S78.328,91.447,77.5,91.447z"/>
		</g>
		<g>
			<path style="fill:#020000;" d="M66,90.947c-0.828,0-1.5-0.672-1.5-1.5v-5c0-0.828,0.672-1.5,1.5-1.5c0.828,0,1.5,0.672,1.5,1.5v5
				C67.5,90.275,66.828,90.947,66,90.947z"/>
		</g>
		<g>
			<path style="fill:#020000;" d="M78,90.947c-0.828,0-1.5-0.672-1.5-1.5v-5c0-0.828,0.672-1.5,1.5-1.5c0.828,0,1.5,0.672,1.5,1.5v5
				C79.5,90.275,78.828,90.947,78,90.947z"/>
		</g>
	</g>
</g>
<script  type="text/javascript">
    <![CDATA[
         var c=window.location.search.split('color=')[1]; c=parseInt(c,16); if(!isNaN(c)){c=c.toString(16);var p=document.getElementsByTagName('path');for(var i=0,l=p.length;i<l;i++){var s=p[i].style;s.fill='#'+c;} var p2=document.getElementsByTagName('polygon');for(var i=0,l=p2.length;i<l;i++){var s=p2[i].style;s.fill='#'+c;} var p3=document.getElementsByTagName('circle');for(var i=0,l=p3.length;i<l;i++){var s=p3[i].style;s.fill='#'+c;} }
        ]]>
</script>
</svg>
