<svg version="1.1" xmlns="http://www.w3.org/2000/svg" xmlns:xlink="http://www.w3.org/1999/xlink" x="0px" y="0px"
	 viewBox="0 0 100 100" style="enable-background:new 0 0 100 100;" xml:space="preserve">
<g id="Vrstva_23">
	<g>
		<g>
			<path d="M50,82.821c-23.957,0-43.447-11.808-43.447-26.321c0-0.829,0.672-1.5,1.5-1.5c0.828,0,1.5,0.671,1.5,1.5
				c0,12.859,18.145,23.321,40.447,23.321S90.447,69.359,90.447,56.5c0-0.829,0.672-1.5,1.5-1.5c0.828,0,1.5,0.671,1.5,1.5
				C93.447,71.014,73.957,82.821,50,82.821z"/>
		</g>
		<g>
			<path d="M50,69.821c-23.957,0-43.447-11.808-43.447-26.321S26.043,17.179,50,17.179S93.447,28.986,93.447,43.5
				S73.957,69.821,50,69.821z M50,20.179c-22.303,0-40.447,10.462-40.447,23.321S27.697,66.821,50,66.821S90.447,56.359,90.447,43.5
				S72.303,20.179,50,20.179z"/>
		</g>
		<g>
			<path d="M8,57c-0.828,0-1.5-0.671-1.5-1.5v-12C6.5,42.671,7.172,42,8,42s1.5,0.671,1.5,1.5v12C9.5,56.329,8.828,57,8,57z"/>
		</g>
		<g>
			<path d="M92,57c-0.828,0-1.5-0.671-1.5-1.5v-12c0-0.829,0.672-1.5,1.5-1.5s1.5,0.671,1.5,1.5v12C93.5,56.329,92.828,57,92,57z"/>
		</g>
		<g>
			<path d="M34,80c-0.828,0-1.5-0.671-1.5-1.5v-10c0-0.829,0.672-1.5,1.5-1.5s1.5,0.671,1.5,1.5v10C35.5,79.329,34.828,80,34,80z"/>
		</g>
		<g>
			<path d="M20,74c-0.828,0-1.5-0.671-1.5-1.5v-10c0-0.829,0.672-1.5,1.5-1.5s1.5,0.671,1.5,1.5v10C21.5,73.329,20.828,74,20,74z"/>
		</g>
		<g>
			<path d="M49,81c-0.828,0-1.5-0.671-1.5-1.5v-10c0-0.829,0.672-1.5,1.5-1.5s1.5,0.671,1.5,1.5v10C50.5,80.329,49.828,81,49,81z"/>
		</g>
		<g>
			<path d="M65,80c-0.828,0-1.5-0.671-1.5-1.5v-10c0-0.829,0.672-1.5,1.5-1.5s1.5,0.671,1.5,1.5v10C66.5,79.329,65.828,80,65,80z"/>
		</g>
		<g>
			<path d="M79,75c-0.828,0-1.5-0.671-1.5-1.5v-11c0-0.829,0.672-1.5,1.5-1.5s1.5,0.671,1.5,1.5v11C80.5,74.329,79.828,75,79,75z"/>
		</g>
	</g>
</g>
<script  type="text/javascript">
    <![CDATA[
         var c=window.location.search.split('color=')[1]; c=parseInt(c,16); if(!isNaN(c)){c=c.toString(16);var p=document.getElementsByTagName('path');for(var i=0,l=p.length;i<l;i++){var s=p[i].style;s.fill='#'+c;} var p2=document.getElementsByTagName('polygon');for(var i=0,l=p2.length;i<l;i++){var s=p2[i].style;s.fill='#'+c;} var p3=document.getElementsByTagName('circle');for(var i=0,l=p3.length;i<l;i++){var s=p3[i].style;s.fill='#'+c;} }
        ]]>
</script>
</svg>
