<svg version="1.1" xmlns="http://www.w3.org/2000/svg" xmlns:xlink="http://www.w3.org/1999/xlink" x="0px" y="0px"
	 viewBox="0 0 100 100" style="enable-background:new 0 0 100 100;" xml:space="preserve">
<g id="Vrstva_64">
	<g>
		<g>
			<path d="M28.731,84.196c-0.384,0-0.768-0.146-1.06-0.439c-0.586-0.586-0.586-1.535,0-2.121l29.699-29.698
				c0.586-0.586,1.535-0.586,2.121,0c0.586,0.586,0.586,1.535,0,2.121L29.791,83.756C29.498,84.049,29.115,84.196,28.731,84.196z"/>
		</g>
		<g>
			<path d="M17.417,72.882c-0.384,0-0.768-0.146-1.061-0.439c-0.586-0.586-0.586-1.535,0-2.121l29.698-29.698
				c0.586-0.586,1.535-0.586,2.121,0c0.586,0.586,0.586,1.535,0,2.121L18.478,72.443C18.185,72.736,17.801,72.882,17.417,72.882z"/>
		</g>
		<g>
			<path d="M22.9,86.432c-2.508,0-4.869-0.874-6.661-2.666c-1.824-1.823-2.809-4.184-2.772-6.743
				c0.036-2.529,1.062-4.901,2.89-6.727c0.586-0.586,1.536-0.573,2.121,0.013c0.586,0.586,0.586,1.542,0,2.128
				c-1.272,1.272-1.986,2.936-2.011,4.68c-0.025,1.742,0.648,3.389,1.894,4.635c1.247,1.247,2.936,1.935,4.634,1.896
				c1.743-0.025,3.404-0.739,4.676-2.011c0.585-0.586,1.535-0.586,2.121,0c0.586,0.586,0.586,1.428,0,2.014
				c-1.827,1.828-4.226,2.783-6.754,2.783C22.991,86.432,22.945,86.432,22.9,86.432z"/>
		</g>
		<g>
			<path d="M66.031,54.574c-5.25,0-10.499-1.999-14.496-5.995c-7.993-7.993-7.993-20.999,0-28.991
				c5.522-5.523,13.562-7.424,20.977-4.958c0.786,0.262,1.212,1.11,0.95,1.897c-0.261,0.787-1.107,1.211-1.896,0.951
				c-6.333-2.105-13.195-0.483-17.91,4.231c-6.823,6.823-6.823,17.925,0,24.749c6.823,6.823,17.925,6.823,24.749,0
				c4.559-4.56,6.24-11.233,4.387-17.416c-0.238-0.794,0.213-1.63,1.006-1.867c0.792-0.238,1.629,0.211,1.868,1.006
				c2.17,7.241,0.201,15.058-5.14,20.398C76.53,52.575,71.28,54.574,66.031,54.574z"/>
		</g>
		<g>
			<path d="M72.218,40.709c-0.398,0-0.779-0.158-1.061-0.439L59.844,28.956c-0.586-0.586-0.586-1.535,0-2.121l11.667-11.667
				c0.586-0.586,1.535-0.586,2.121,0c0.586,0.586,0.586,1.535,0,2.121L63.025,27.895l9.193,9.193l10.606-10.607
				c0.585-0.586,1.535-0.586,2.121,0c0.586,0.586,0.586,1.535,0,2.121L73.279,40.27C72.997,40.551,72.616,40.709,72.218,40.709z"/>
		</g>
	</g>
</g>
<script  type="text/javascript">
    <![CDATA[
         var c=window.location.search.split('color=')[1]; c=parseInt(c,16); if(!isNaN(c)){c=c.toString(16);var p=document.getElementsByTagName('path');for(var i=0,l=p.length;i<l;i++){var s=p[i].style;s.fill='#'+c;} var p2=document.getElementsByTagName('polygon');for(var i=0,l=p2.length;i<l;i++){var s=p2[i].style;s.fill='#'+c;} var p3=document.getElementsByTagName('circle');for(var i=0,l=p3.length;i<l;i++){var s=p3[i].style;s.fill='#'+c;} }
        ]]>
</script>
</svg>
