<svg version="1.1" xmlns="http://www.w3.org/2000/svg" xmlns:xlink="http://www.w3.org/1999/xlink" x="0px" y="0px"
	 viewBox="-1.000 -1.000 102.000 102.000" style="enable-background:new 0 0 100 100;" xml:space="preserve">
<g id="Vrstva_170">
	<g>
		<g>
			<path d="M50,74.824c-27.032,0-48.493-25.239-49.394-26.314c-0.467-0.557-0.467-1.37,0-1.927
				C1.507,45.509,22.968,20.268,50,20.268c27.034,0,48.494,25.241,49.394,26.316c0.467,0.558,0.467,1.37,0,1.927
				c-0.197,0.235-4.908,5.82-12.688,11.845c-1.404,1.087-2.841,2.135-4.272,3.114c-0.684,0.469-1.618,0.294-2.085-0.391
				c-0.468-0.684-0.293-1.617,0.391-2.085c1.383-0.946,2.772-1.959,4.13-3.011c5.664-4.387,9.701-8.596,11.371-10.434
				C92.022,42.93,72.724,23.268,50,23.268c-22.718,0-42.014,19.655-46.238,24.279C7.986,52.171,27.282,71.824,50,71.824
				c2.313,0,4.687-0.205,7.056-0.608c0.815-0.137,1.592,0.41,1.73,1.227c0.139,0.816-0.41,1.591-1.227,1.73
				C55.025,74.605,52.481,74.824,50,74.824z"/>
		</g>
		<g>
			<path d="M50,63.684c-8.898,0-16.136-7.239-16.136-16.137c0-8.899,7.239-16.139,16.136-16.139c8.899,0,16.139,7.24,16.139,16.139
				C66.138,56.445,58.899,63.684,50,63.684z M50,34.408c-7.243,0-13.136,5.894-13.136,13.139c0,7.244,5.893,13.137,13.136,13.137
				c7.245,0,13.139-5.893,13.139-13.137C63.138,40.302,57.244,34.408,50,34.408z"/>
		</g>
		<g>
			<path d="M44.863,49.047c-0.829,0-1.5-0.671-1.5-1.5c0-3.661,2.978-6.639,6.637-6.639c0.829,0,1.5,0.671,1.5,1.5
				c0,0.829-0.671,1.5-1.5,1.5c-2.005,0-3.637,1.632-3.637,3.639C46.363,48.376,45.692,49.047,44.863,49.047z"/>
		</g>
		<g>
			<g>
				<path d="M80.101,79.732c-0.384,0-0.768-0.146-1.061-0.439l-20.072-20.07c-0.586-0.585-0.586-1.535,0-2.121
					c0.586-0.586,1.535-0.586,2.121,0l20.072,20.07c0.586,0.585,0.586,1.535,0,2.121C80.868,79.586,80.485,79.732,80.101,79.732z"/>
			</g>
		</g>
	</g>
</g>
<script  type="text/javascript">
    <![CDATA[
         var c=window.location.search.split('color=')[1]; c=parseInt(c,16); if(!isNaN(c)){c=c.toString(16);var p=document.getElementsByTagName('path');for(var i=0,l=p.length;i<l;i++){var s=p[i].style;s.fill='#'+c;} var p2=document.getElementsByTagName('polygon');for(var i=0,l=p2.length;i<l;i++){var s=p2[i].style;s.fill='#'+c;} var p3=document.getElementsByTagName('circle');for(var i=0,l=p3.length;i<l;i++){var s=p3[i].style;s.fill='#'+c;} }
        ]]>
</script>
</svg>
