<svg version="1.1" xmlns="http://www.w3.org/2000/svg" xmlns:xlink="http://www.w3.org/1999/xlink" x="0px" y="0px"
	 viewBox="0 0 100 100" style="enable-background:new 0 0 100 100;" xml:space="preserve">
<g id="Vrstva_166">
	<g>
		<g>
			<g>
				<path d="M43.5,86.5c-0.828,0-1.5-0.671-1.5-1.5V71c0-0.829,0.672-1.5,1.5-1.5S45,70.171,45,71v14
					C45,85.829,44.328,86.5,43.5,86.5z"/>
			</g>
			<g>
				<path d="M50,87h-6c-0.828,0-1.5-0.671-1.5-1.5S43.172,84,44,84h6c0.828,0,1.5,0.671,1.5,1.5S50.828,87,50,87z"/>
			</g>
			<g>
				<path d="M50,71H14.5C11.468,71,9,68.533,9,65.5v-47c0-3.033,2.468-5.5,5.5-5.5h71c3.032,0,5.5,2.467,5.5,5.5V24
					c0,0.829-0.672,1.5-1.5,1.5S88,24.829,88,24v-5.5c0-1.378-1.121-2.5-2.5-2.5h-71c-1.379,0-2.5,1.122-2.5,2.5v47
					c0,1.378,1.121,2.5,2.5,2.5H50c0.828,0,1.5,0.671,1.5,1.5S50.828,71,50,71z"/>
			</g>
			<g>
				<path d="M50,58H13c-0.828,0-1.5-0.671-1.5-1.5S12.172,55,13,55h37c0.828,0,1.5,0.671,1.5,1.5S50.828,58,50,58z"/>
			</g>
		</g>
		<g>
			<g>
				<path d="M85.5,87h-22c-3.032,0-5.5-2.467-5.5-5.5v-45c0-3.033,2.468-5.5,5.5-5.5h22c3.032,0,5.5,2.467,5.5,5.5v45
					C91,84.533,88.532,87,85.5,87z M63.5,34c-1.379,0-2.5,1.122-2.5,2.5v45c0,1.378,1.121,2.5,2.5,2.5h22c1.379,0,2.5-1.122,2.5-2.5
					v-45c0-1.378-1.121-2.5-2.5-2.5H63.5z"/>
			</g>
			<g>
				<path d="M89,71H61c-0.828,0-1.5-0.671-1.5-1.5S60.172,68,61,68h28c0.828,0,1.5,0.671,1.5,1.5S89.828,71,89,71z"/>
			</g>
			<g>
				<path d="M78,79h-7c-0.828,0-1.5-0.671-1.5-1.5S70.172,76,71,76h7c0.828,0,1.5,0.671,1.5,1.5S78.828,79,78,79z"/>
			</g>
		</g>
	</g>
</g>
<script  type="text/javascript">
    <![CDATA[
         var c=window.location.search.split('color=')[1]; c=parseInt(c,16); if(!isNaN(c)){c=c.toString(16);var p=document.getElementsByTagName('path');for(var i=0,l=p.length;i<l;i++){var s=p[i].style;s.fill='#'+c;} var p2=document.getElementsByTagName('polygon');for(var i=0,l=p2.length;i<l;i++){var s=p2[i].style;s.fill='#'+c;} var p3=document.getElementsByTagName('circle');for(var i=0,l=p3.length;i<l;i++){var s=p3[i].style;s.fill='#'+c;} }
        ]]>
</script>
</svg>
