<svg version="1.1" xmlns="http://www.w3.org/2000/svg" xmlns:xlink="http://www.w3.org/1999/xlink" x="0px" y="0px"
	 viewBox="0 0 100 100" style="enable-background:new 0 0 100 100;" xml:space="preserve">
<g id="Vrstva_14">
	<g>
		<g>
			<path d="M86.5,78.5H40c-0.828,0-1.5-0.672-1.5-1.5s0.672-1.5,1.5-1.5h45v-51H33v44c0,0.828-0.672,1.5-1.5,1.5
				c-0.828,0-1.5-0.672-1.5-1.5V23c0-0.828,0.672-1.5,1.5-1.5h55c0.828,0,1.5,0.672,1.5,1.5v54C88,77.828,87.328,78.5,86.5,78.5z"/>
		</g>
		<g>
			<path d="M22.5,78.5c-6.572,0-10.5-5.084-10.5-10c0-0.828,0.672-1.5,1.5-1.5s1.5,0.672,1.5,1.5c0,3.394,2.629,7,7.5,7
				s7.5-3.606,7.5-7c0-0.828,0.672-1.5,1.5-1.5c0.828,0,1.5,0.672,1.5,1.5C33,73.416,29.072,78.5,22.5,78.5z"/>
		</g>
		<g>
			<path d="M13.5,70c-0.828,0-1.5-0.672-1.5-1.5v-45c0-0.828,0.672-1.5,1.5-1.5s1.5,0.672,1.5,1.5v45C15,69.328,14.328,70,13.5,70z"
				/>
		</g>
		<g>
			<path d="M22.5,70c-0.828,0-1.5-0.672-1.5-1.5v-45c0-0.828,0.672-1.5,1.5-1.5s1.5,0.672,1.5,1.5v45C24,69.328,23.328,70,22.5,70z"
				/>
		</g>
		<g>
			<path d="M78,33.5H65c-0.828,0-1.5-0.672-1.5-1.5c0-0.828,0.672-1.5,1.5-1.5h13c0.828,0,1.5,0.672,1.5,1.5
				C79.5,32.828,78.828,33.5,78,33.5z"/>
		</g>
		<g>
			<path d="M78,42.5H65c-0.828,0-1.5-0.672-1.5-1.5s0.672-1.5,1.5-1.5h13c0.828,0,1.5,0.672,1.5,1.5S78.828,42.5,78,42.5z"/>
		</g>
		<g>
			<path d="M78,51.5H65c-0.828,0-1.5-0.672-1.5-1.5s0.672-1.5,1.5-1.5h13c0.828,0,1.5,0.672,1.5,1.5S78.828,51.5,78,51.5z"/>
		</g>
		<g>
			<path d="M78,60.5H40c-0.828,0-1.5-0.672-1.5-1.5s0.672-1.5,1.5-1.5h38c0.828,0,1.5,0.672,1.5,1.5S78.828,60.5,78,60.5z"/>
		</g>
		<g>
			<path d="M78,69.5H40c-0.828,0-1.5-0.672-1.5-1.5s0.672-1.5,1.5-1.5h38c0.828,0,1.5,0.672,1.5,1.5S78.828,69.5,78,69.5z"/>
		</g>
		<g>
			<path d="M56.5,51.5h-16c-0.828,0-1.5-0.672-1.5-1.5V32c0-0.828,0.672-1.5,1.5-1.5h16c0.828,0,1.5,0.672,1.5,1.5v18
				C58,50.828,57.328,51.5,56.5,51.5z M42,48.5h13v-15H42V48.5z"/>
		</g>
	</g>
</g>
<script  type="text/javascript">
    <![CDATA[
         var c=window.location.search.split('color=')[1]; c=parseInt(c,16); if(!isNaN(c)){c=c.toString(16);var p=document.getElementsByTagName('path');for(var i=0,l=p.length;i<l;i++){var s=p[i].style;s.fill='#'+c;} var p2=document.getElementsByTagName('polygon');for(var i=0,l=p2.length;i<l;i++){var s=p2[i].style;s.fill='#'+c;} var p3=document.getElementsByTagName('circle');for(var i=0,l=p3.length;i<l;i++){var s=p3[i].style;s.fill='#'+c;} }
        ]]>
</script>
</svg>
