<svg version="1.1" xmlns="http://www.w3.org/2000/svg" xmlns:xlink="http://www.w3.org/1999/xlink" x="0px" y="0px"
	 viewBox="-1.000 -1.000 102.000 102.000" style="enable-background:new 0 0 100 100;" xml:space="preserve">
<g id="Vrstva_91">
	<g>
		<g>
			<g>
				<path d="M18.914,80.972c-0.247,0-0.494-0.061-0.718-0.184c-0.476-0.26-0.775-0.756-0.782-1.299l-0.162-13.896
					C8.133,60.73,2.719,52.989,2.719,44.738c0-14.177,15.684-25.71,34.963-25.71c5.65,0,11.024,0.954,15.974,2.835
					c0.774,0.295,1.163,1.161,0.869,1.936c-0.294,0.773-1.159,1.163-1.935,0.869c-4.607-1.752-9.623-2.64-14.907-2.64
					c-17.624,0-31.963,10.188-31.963,22.71c0,7.336,5.12,14.288,13.695,18.596c0.501,0.252,0.82,0.763,0.827,1.323l0.142,12.122
					l14.502-9.102c0.239-0.15,0.515-0.229,0.797-0.229c5.474,0,11.962-0.917,15.78-2.23c0.782-0.27,1.637,0.147,1.906,0.93
					c0.27,0.783-0.147,1.637-0.931,1.906c-4.636,1.596-11.6,2.349-16.321,2.393L19.711,80.742
					C19.468,80.895,19.191,80.972,18.914,80.972z"/>
			</g>
		</g>
		<g>
			<g>
				<path d="M85.283,72.622c-0.298,0-0.594-0.089-0.849-0.264l-12.03-8.257c-14.107-0.186-25.937-8.717-25.937-18.793
					c0-10.364,11.397-18.797,25.406-18.797c14.009,0,25.407,8.433,25.407,18.797c0,5.987-3.863,11.599-10.385,15.155l-0.113,10.674
					c-0.006,0.555-0.317,1.06-0.808,1.315C85.757,72.566,85.52,72.622,85.283,72.622z M71.874,29.512
					c-12.355,0-22.406,7.087-22.406,15.797c0,8.415,10.938,15.796,23.406,15.796c0.303,0,0.599,0.092,0.849,0.264l10.09,6.926
					l0.093-8.758c0.006-0.562,0.325-1.072,0.827-1.324c5.979-3.005,9.548-7.829,9.548-12.903
					C94.281,36.599,84.229,29.512,71.874,29.512z"/>
			</g>
		</g>
	</g>
</g>
<script  type="text/javascript">
    <![CDATA[
         var c=window.location.search.split('color=')[1]; c=parseInt(c,16); if(!isNaN(c)){c=c.toString(16);var p=document.getElementsByTagName('path');for(var i=0,l=p.length;i<l;i++){var s=p[i].style;s.fill='#'+c;} var p2=document.getElementsByTagName('polygon');for(var i=0,l=p2.length;i<l;i++){var s=p2[i].style;s.fill='#'+c;} var p3=document.getElementsByTagName('circle');for(var i=0,l=p3.length;i<l;i++){var s=p3[i].style;s.fill='#'+c;} }
        ]]>
</script>
</svg>
