<svg xmlns="http://www.w3.org/2000/svg" viewBox="0 0 269.4 267.2"><style type="text/css">.st0{fill:#525456}</style><g></g><g><g><g><g><g><path class="st0" d="M134.8,237.8L122.7,209v-44.7c0-1.4,1.1-2.5,2.5-2.5s2.5,1.1,2.5,2.5V208l7.1,16.8l7-16.8v-43.7
						c0-1.4,1.1-2.5,2.5-2.5c1.4,0,2.5,1.1,2.5,2.5V209L134.8,237.8z"/></g><g><path class="st0" d="M144.2,120.4c-1.4,0-2.5-1.1-2.5-2.5V43.5h-14.1v74.4c0,1.4-1.1,2.5-2.5,2.5s-2.5-1.1-2.5-2.5V38.5h24.1
						v79.4C146.7,119.3,145.6,120.4,144.2,120.4z"/></g><g><path class="st0" d="M166.1,43.5h-62.8V29.4h62.8V43.5z M108.3,38.5h52.8v-4.1h-52.8V38.5z"/></g><g><path class="st0" d="M144.2,65.1h-19c-1.4,0-2.5-1.1-2.5-2.5c0-1.4,1.1-2.5,2.5-2.5h19c1.4,0,2.5,1.1,2.5,2.5
						C146.7,64,145.6,65.1,144.2,65.1z"/></g><g><path class="st0" d="M144.2,78.3h-19c-1.4,0-2.5-1.1-2.5-2.5c0-1.4,1.1-2.5,2.5-2.5h19c1.4,0,2.5,1.1,2.5,2.5
						C146.7,77.2,145.6,78.3,144.2,78.3z"/></g><g><path class="st0" d="M144.2,91.6h-19c-1.4,0-2.5-1.1-2.5-2.5c0-1.4,1.1-2.5,2.5-2.5h19c1.4,0,2.5,1.1,2.5,2.5
						C146.7,90.5,145.6,91.6,144.2,91.6z"/></g><g><path class="st0" d="M144.2,104.8h-19c-1.4,0-2.5-1.1-2.5-2.5c0-1.4,1.1-2.5,2.5-2.5h19c1.4,0,2.5,1.1,2.5,2.5
						C146.7,103.7,145.6,104.8,144.2,104.8z"/></g></g><g><path class="st0" d="M242.2,157.2h-215V125h215V157.2z M32.2,152.2h205V130h-205V152.2z"/></g><g><path class="st0" d="M52.7,157.2c-0.6,0-1.3-0.2-1.8-0.7c-1-1-1-2.6,0-3.5l27.2-27.2c1-1,2.6-1,3.5,0c1,1,1,2.6,0,3.5
					l-27.2,27.2C53.9,157,53.3,157.2,52.7,157.2z"/></g><g><path class="st0" d="M99.1,157.2c-0.6,0-1.3-0.2-1.8-0.7c-1-1-1-2.6,0-3.5l27.2-27.2c1-1,2.6-1,3.5,0c1,1,1,2.6,0,3.5
					l-27.2,27.2C100.4,157,99.8,157.2,99.1,157.2z"/></g><g><path class="st0" d="M145.6,157.2c-0.6,0-1.3-0.2-1.8-0.7c-1-1-1-2.6,0-3.5l27.2-27.2c1-1,2.6-1,3.5,0c1,1,1,2.6,0,3.5
					l-27.2,27.2C146.9,157,146.3,157.2,145.6,157.2z"/></g><g><path class="st0" d="M192.1,157.2c-0.6,0-1.3-0.2-1.8-0.7c-1-1-1-2.6,0-3.5l27.2-27.2c1-1,2.6-1,3.5,0c1,1,1,2.6,0,3.5
					l-27.2,27.2C193.3,157,192.7,157.2,192.1,157.2z"/></g></g></g></g><script type="text/javascript"><![CDATA[ var c=window.location.search.split("color=")[1];if(c=parseInt(c,16),!isNaN(c)){c=c.toString(16);for(var p=document.getElementsByTagName("path"),i=0,l=p.length;i<l;i++)(s=p[i].style).fill="#"+c;for(var r=document.getElementsByTagName("circle"),i=0,l=r.length;i<l;i++){var s=r[i].style;s.fill="#"+c}} ]]></script></svg>