<svg version="1.1" xmlns="http://www.w3.org/2000/svg" xmlns:xlink="http://www.w3.org/1999/xlink" x="0px" y="0px"
	 viewBox="0 0 100 100" style="enable-background:new 0 0 100 100;" xml:space="preserve">
<g id="Vrstva_223">
	<g>
		<g>
			<g>
				<path d="M35.381,85.538c-7.807,0-15.147-3.04-20.667-8.561c-5.52-5.52-8.56-12.86-8.56-20.667
					c-0.001-7.808,3.04-15.148,8.56-20.667c5.52-5.521,12.859-8.561,20.667-8.561c7.808,0,15.147,3.04,20.667,8.561
					c5.521,5.52,8.561,12.86,8.561,20.667c0,7.807-3.04,15.147-8.561,20.667C50.528,82.498,43.189,85.538,35.381,85.538z
					 M35.381,30.082c-7.006,0-13.592,2.728-18.545,7.682c-4.954,4.954-7.682,11.54-7.682,18.546c0,7.006,2.728,13.593,7.682,18.546
					c4.954,4.954,11.54,7.682,18.546,7.682s13.592-2.728,18.546-7.682c4.954-4.954,7.682-11.541,7.682-18.546
					c0-7.006-2.728-13.592-7.682-18.546C48.974,32.81,42.387,30.082,35.381,30.082z"/>
			</g>
			<g>
				<path d="M22.789,69.403c-0.384,0-0.767-0.146-1.06-0.439c-6.977-6.977-6.977-18.33,0-25.307c0.586-0.586,1.535-0.586,2.121,0
					c0.586,0.585,0.586,1.536,0,2.121c-5.807,5.808-5.807,15.257,0,21.065c0.586,0.585,0.586,1.536,0,2.121
					C23.556,69.256,23.172,69.403,22.789,69.403z"/>
			</g>
			<g>
				<path d="M60.484,45.436c-0.384,0-0.768-0.146-1.061-0.439c-0.586-0.585-0.586-1.535,0-2.121l5.303-5.304
					c0.585-0.585,0.585-1.536,0-2.121l-8.485-8.485c-0.562-0.562-1.56-0.562-2.121,0l-5.304,5.303c-0.586,0.586-1.535,0.586-2.121,0
					c-0.586-0.586-0.586-1.536,0-2.121l5.303-5.303c0.847-0.848,1.977-1.314,3.182-1.314c1.205,0,2.335,0.467,3.182,1.314
					l8.485,8.485c1.754,1.754,1.754,4.609,0,6.363l-5.303,5.304C61.252,45.289,60.868,45.436,60.484,45.436z"/>
			</g>
			<g>
				<path d="M76.615,31.861c-1.686,0-3.449-0.699-4.817-2.068l-1.414-1.414c-0.702-0.702-1.587-1.173-2.427-1.293
					c-0.404-0.058-1.149-0.08-1.638,0.41l-2.652,2.652c-0.586,0.585-1.536,0.585-2.122,0c-0.585-0.586-0.585-1.536,0-2.122
					l2.652-2.651c1.031-1.031,2.557-1.493,4.184-1.258c1.492,0.213,2.956,0.974,4.125,2.142l1.414,1.414
					c1.342,1.341,3.364,1.583,4.42,0.53l3.005-3.005c0.586-0.586,1.535-0.586,2.121,0c0.586,0.585,0.586,1.536,0,2.121l-3.005,3.005
					C79.429,31.355,78.05,31.861,76.615,31.861z"/>
			</g>
		</g>
		<g>
			<path d="M77.041,20.361c-0.662,0-1.269-0.442-1.448-1.112l-0.776-2.898c-0.214-0.8,0.26-1.623,1.061-1.837
				c0.799-0.216,1.623,0.261,1.837,1.06l0.776,2.898c0.214,0.8-0.26,1.623-1.061,1.837C77.3,20.345,77.17,20.361,77.041,20.361z"/>
		</g>
		<g>
			<path d="M92.347,33.543c-0.128,0-0.259-0.017-0.389-0.052l-2.898-0.776c-0.8-0.214-1.275-1.037-1.061-1.837
				c0.214-0.8,1.038-1.277,1.837-1.06l2.898,0.776c0.8,0.214,1.275,1.037,1.061,1.837C93.615,33.101,93.009,33.543,92.347,33.543z"
				/>
		</g>
		<g>
			<path d="M88.061,22.101c-0.384,0-0.768-0.146-1.061-0.44c-0.586-0.585-0.586-1.536,0-2.121l2.121-2.121
				c0.586-0.586,1.535-0.586,2.121,0c0.586,0.585,0.586,1.536,0,2.121l-2.121,2.121C88.829,21.954,88.445,22.101,88.061,22.101z"/>
		</g>
	</g>
</g>
<script  type="text/javascript">
    <![CDATA[
         var c=window.location.search.split('color=')[1]; c=parseInt(c,16); if(!isNaN(c)){c=c.toString(16);var p=document.getElementsByTagName('path');for(var i=0,l=p.length;i<l;i++){var s=p[i].style;s.fill='#'+c;} var p2=document.getElementsByTagName('polygon');for(var i=0,l=p2.length;i<l;i++){var s=p2[i].style;s.fill='#'+c;} var p3=document.getElementsByTagName('circle');for(var i=0,l=p3.length;i<l;i++){var s=p3[i].style;s.fill='#'+c;} }
        ]]>
</script>
</svg>
